<svg width="308" height="74" viewBox="0 0 308 74" fill="none" xmlns="http://www.w3.org/2000/svg">
<path d="M81.272 40.4103C81.8563 45.1147 83.2081 49.7404 85.5627 53.7377C85.7545 54.2091 86.5394 54.9555 86.4435 55.4073C85.9638 56.7429 84.5685 57.1358 83.5046 57.6956C77.9756 60.7794 79.7982 66.2596 85.8156 64.9141C87.0452 64.6392 87.3592 65.5034 88.5277 64.9927C89.4434 64.59 90.6643 66.9766 91.5713 66.5739C94.5451 66.407 97.266 69.3042 99.7514 70.7381C99.8473 69.7069 99.5334 67.1043 103.292 66.1418C104.958 65.7097 105.952 62.3705 108.638 61.9776C109.632 55.9278 100.44 47.5798 94.8416 44.3879C87.4289 40.1746 94.4753 18.0377 82.2924 16.1422C78.8302 17.635 78.961 22.4278 79.7372 25.8062C80.679 31.1588 80.3302 35.0676 81.272 40.4103Z" fill="#0A4570"/>
<path d="M91.6846 59.65C90.4288 61.2902 84.6818 65.1204 80.0162 62.6848C79.7371 62.0169 79.711 61.2411 79.9115 60.5241C80.8359 56.743 77.5918 56.9983 77.8447 53.9341C77.8621 53.718 77.7924 53.5118 77.6528 53.3547C75.9436 51.5672 77.1122 51.0074 77.0947 49.1905C76.8157 46.5879 74.1645 46.8039 72.7518 45.1245C70.8506 42.0898 78.115 38.8979 76.6412 30.4713C76.0395 26.258 77.243 21.976 79.8156 18.8136C94.1177 28.0553 80.3999 35.8042 82.1005 42.571C83.9231 49.8878 100.998 47.5503 91.6846 59.65Z" fill="#0086FF"/>
<path d="M102.533 63.7258L90.7341 66.1418L87.5859 64.5017C84.1411 66.299 79.1092 64.9142 79.9116 60.5241C80.836 56.743 77.5918 56.9983 77.8447 53.9341C77.6616 52.7261 76.1529 52.4904 76.9029 50.4967C78.0802 47.1575 74.3826 46.853 72.7518 45.1245C70.8158 42.1683 78.1064 38.9175 76.6413 30.4713C76.0395 26.258 77.243 21.976 79.8156 18.8136L80.1383 19.0297C82.5801 18.4011 87.8736 22.4671 87.2719 31.9543C86.7138 45.1442 88.7544 45.5861 95.1991 48.778C99.8299 51.0761 103.536 57.126 102.533 63.7258Z" fill="#2FC0F2"/>
<path d="M98.9752 64.2758C98.8618 67.5364 98.1816 70.2863 98.3473 70.7381C98.4171 70.9149 98.4607 71.0818 98.5043 71.2292C97.7979 71.4943 97.1002 71.7399 96.4026 71.9559C95.1293 71.3568 93.7689 70.3649 93.7689 70.306C92.1991 67.4185 91.8241 66.7605 90.7602 66.1025C90.1149 65.6998 89.2341 65.307 87.6818 64.4329C87.6818 64.4329 96.4287 61.5258 97.9897 57.4599C98.8705 59.6009 99.0537 62.0562 98.9752 64.2758Z" fill="#0A4570" fill-opacity="0.3"/>
<path d="M91.6847 59.65C90.4027 61.6339 83.6179 65.0222 80.0163 62.6848C79.7372 62.0169 79.711 61.2411 79.9116 60.5241C80.8447 56.7626 77.5919 56.9885 77.8448 53.9341C77.8622 53.718 77.7925 53.5118 77.6529 53.3547C75.9436 51.5672 77.1122 51.0074 77.0948 49.1905C76.8157 46.5879 74.1646 46.8039 72.7518 45.1245C70.842 42.0996 78.1151 38.8979 76.6413 30.4713C76.0396 26.258 77.2518 21.9564 79.8157 18.8136C94.1178 28.0553 80.4 35.8042 82.1005 42.571C83.9232 49.8878 100.998 47.5503 91.6847 59.65Z" fill="white" fill-opacity="0.4"/>
<path d="M86.6441 61.0643C84.7604 63.2151 82.7634 64.2267 80.0163 62.6848C79.7373 62.0169 79.7111 61.2509 79.9117 60.5241C80.8361 56.743 77.5919 56.9983 77.8448 53.9341C77.8623 53.718 77.7925 53.5118 77.653 53.3645C75.935 51.5476 77.121 51.0172 77.0949 49.1905C76.8594 46.637 74.0687 46.7352 72.7519 45.1245C72.0978 44.1228 72.499 43.0817 73.2752 41.8148C79.9902 32.5731 74.3304 30.9722 77.6704 22.4081C86.9842 30.6972 75.4902 37.7488 77.0513 43.9853C78.8826 51.2922 95.9579 48.9646 86.6441 61.0643Z" fill="white" fill-opacity="0.3"/>
<path d="M74.932 46.5878C72.7692 45.6352 71.5047 44.4468 73.2751 41.8148C72.9437 43.6415 73.6326 45.4191 74.932 46.5878Z" fill="white" fill-opacity="0.2"/>
<path d="M76.6412 30.4714C76.4145 28.8901 76.4407 27.2893 76.711 25.7375C78.1325 28.3991 77.7488 30.9231 76.8157 33.3391C76.868 32.4552 76.8157 31.5026 76.6412 30.4714Z" fill="white" fill-opacity="0.39"/>
<path d="M82.9377 61.0643C82.1528 61.8893 81.4377 62.5669 80.6616 62.9892C80.4523 62.9008 80.243 62.8026 80.0162 62.6848C79.7372 62.0169 79.711 61.2509 79.9116 60.5241C80.836 56.743 77.5919 56.9983 77.8448 53.9341C77.8622 53.718 77.7924 53.5118 77.6529 53.3645C75.4901 51.3315 78.0628 49.878 76.6326 47.8646C81.7517 50.9976 90.0539 51.8127 82.9377 61.0643Z" fill="#0A4570" fill-opacity="0.05"/>
<path d="M122.957 33.3882C122.949 33.8694 122.931 34.3408 122.905 34.8221C122.443 41.2648 120.263 46.8137 117.019 52.4412C116.242 54.1207 114.751 55.0537 114.803 58L114.088 58.1375C113.975 54.651 115.71 53.6493 116.661 51.5672C118.806 47.7664 120.306 44.2504 121.318 40.2041C121.396 39.8701 121.475 39.5461 121.545 39.222C122.129 36.4426 122.373 33.7221 122.164 30.9132C121.074 14.394 103.44 5.57462 90.3417 11.0941C83.5656 14.1485 75.7256 21.0921 76.964 30.1668C77.9407 36.9827 74.7838 39.7818 72.7954 43.4942C72.1763 46.3718 77.3651 45.7629 77.4611 49.1413C77.5744 50.8797 76.3012 51.4591 77.9058 53.0698C78.6558 54.1305 77.6268 55.1224 79.2052 56.4286C81.5075 58.6679 79.6413 60.6026 80.3476 62.5178C82.8244 66.9766 86.2167 63.3035 89.5394 65.0713L92.2515 66.4855L91.9463 67.2123L89.2341 65.798C88.2574 65.2972 87.1411 65.1695 86.0946 65.4445C83.3214 66.1811 80.9407 65.3266 79.6849 62.8517C78.8389 60.9169 80.6529 58.8054 78.7692 57.067C77.9669 56.3992 77.5308 55.5349 77.4785 54.4841C77.4262 54.2189 77.5744 53.8653 77.4 53.6493C76.6587 52.8341 76.2314 52.0975 76.3797 51.0368C76.4756 50.4672 76.8419 49.8288 76.7372 49.2395C76.5192 46.2834 71.0251 46.853 72.1327 43.1799C72.3768 42.5513 72.8303 41.8737 73.3623 41.088C79.5453 33.5846 72.8652 26.5526 79.5541 18.5484C84.6993 12.3512 90.7952 8.82543 98.1729 8.63883C110.844 8.14777 123.393 18.5779 122.957 33.3882Z" fill="#0A4570"/>
<path d="M109.022 53.8162L103.972 49.4753C103.972 49.4753 98.0508 39.4773 98.0421 39.4675C96.8648 36.0203 94.7021 28.9687 93.7951 25.4331L93.5248 25.3938L93.7079 25.2465L89.2516 18.2538L85.179 13.6869L85.4144 13.5003L89.4696 18.0475C89.4783 18.0574 93.9346 25.05 93.9434 25.0599L101.452 19.0591L102.307 26.4545L103.719 31.8168C105.777 28.6249 109.702 21.9662 111.559 18.6073L116.931 26.1991L113.347 30.1472L109.397 36.1676L114.629 42.0701L109.022 53.8162ZM104.19 49.2494L108.926 53.3252L114.272 42.1291L109.022 36.2069L113.129 29.9312L116.539 26.1696L111.586 19.1573C109.711 22.5751 105.708 29.2928 103.615 32.5534L102.054 26.6312L94.109 25.4723C95.0073 28.9687 97.1352 35.9221 98.3038 39.33L104.19 49.2494ZM94.2835 25.1777L101.993 26.3071L101.225 19.6386L94.2835 25.1777Z" fill="#0086FF"/>
<path d="M103.859 32.3471H95.4259L102.237 26.2089L103.859 32.3471ZM96.2369 32.023H103.466L102.089 26.7687L96.2369 32.023Z" fill="#0086FF"/>
<path d="M105.629 42.3451L97.9288 39.4773L103.746 31.8266L105.629 42.3451ZM98.4259 39.3202L105.246 41.8639L103.58 32.5436L98.4259 39.3202Z" fill="#0086FF"/>
<path d="M109.213 36.3444L109.196 36.0301L118.03 35.3525L113.129 30.1571L113.33 29.9312L118.702 35.6176L109.213 36.3444Z" fill="#0086FF"/>
<path d="M93.769 25.2661L95.3126 14.0798L95.6003 14.1289L94.048 25.3152L93.769 25.2661Z" fill="#0086FF"/>
<path d="M117.498 55.6822L108.865 53.7082L105.472 42.7084L104.225 49.3967L103.937 49.3279L105.333 41.8638L104.591 41.8344L108.987 36.2167L103.292 32.1016L112.867 29.9606L107.618 25.9142L102.176 26.641L102.141 26.3267L107.696 25.5803L113.591 30.1275L104.042 32.2587L109.423 36.1479L105.202 41.5299L105.394 41.5397L105.402 41.4906L105.42 41.5397L114.559 41.9424L117.498 55.6724V55.6822ZM109.083 53.4332L117.114 55.2599L114.333 42.2567L105.516 41.8736L109.083 53.4332Z" fill="#0086FF"/>
<path d="M124.318 43.8968L114.202 42.2272L118.213 35.4506L116.618 26.3366L107.6 25.9044C104.722 22.85 98.6614 16.977 95.4958 14.3449L95.4696 14.394L95.4173 14.3155L89.1558 18.4796L91.2749 7.40135L95.4522 13.8244L99.7341 6.37994L105.594 13.736L101.539 19.3341L107.714 25.5902L116.853 26.0321L118.527 35.5194L114.69 41.9817L124.362 43.5727C124.362 43.5727 124.327 43.887 124.318 43.8968ZM95.6528 14.0699L101.138 18.9707L99.6556 7.09689L95.6528 14.0699ZM99.9608 7.146L101.435 18.9609L105.211 13.7458L99.9608 7.146ZM91.4144 8.17722L89.5744 17.8216L95.2516 14.0601L91.4144 8.17722Z" fill="#0086FF"/>
<path d="M121.318 20.5519L121.17 20.3457L121.641 19.7859C121.763 19.9136 122.042 20.2082 122.173 20.3359C122.111 20.4046 121.606 21.0135 121.536 21.0921L121.318 20.5519Z" fill="#0A4570" fill-opacity="0.4"/>
<path d="M125.129 33.9779C125.129 33.9582 125.112 33.791 125.103 33.7614L125.548 34.1943L125.12 34.2927L125.129 33.9779Z" fill="#0A4570" fill-opacity="0.4"/>
<path d="M124.231 43.8379L118.109 35.3819L124.449 33.8792L116.521 26.1991L121.649 20.1296L121.859 20.3456L116.94 26.1696L125.077 34.056L118.632 35.5881L124.457 43.6415L124.231 43.8379Z" fill="#0086FF"/>
<path d="M116.739 26.3464L116.722 26.0223L123.76 25.5902L123.777 25.9143L116.739 26.3464Z" fill="#0086FF"/>
<path d="M105.315 13.8735L105.49 13.6182L111.655 18.7547L111.481 19.01L105.315 13.8735Z" fill="#0086FF"/>
<path d="M101.33 19.1868L111.402 18.5877L111.411 18.902L101.347 19.5109L101.33 19.1868Z" fill="#0086FF"/>
<path d="M111.934 9.83704V11.0647L111.28 10.554L111.202 10.6031V9.83704H111.934Z" fill="#0A4570" fill-opacity="0.4"/>
<path d="M111.42 10.0825H111.716V18.8823H111.42V10.0825Z" fill="#0086FF"/>
<path d="M118.457 15.4744C118.457 15.4744 117.952 15.7494 117.952 15.7592L117.69 15.553L117.76 14.9539C117.847 14.9146 118.048 14.7967 118.126 14.7574C118.222 14.9637 118.362 15.2583 118.457 15.4744Z" fill="#0A4570" fill-opacity="0.4"/>
<path d="M111.498 18.7449L118.03 15.0816L118.161 15.3664L111.629 19.0297L111.498 18.7449Z" fill="#0086FF"/>
<path d="M118.457 15.4744C118.457 15.4744 117.952 15.7494 117.952 15.7592L117.69 15.553C117.716 15.3565 117.777 14.8557 117.803 14.6592L118.013 14.8262L118.126 14.7575L118.239 15.003L118.37 15.1012L118.318 15.1699L118.457 15.4744Z" fill="#0A4570" fill-opacity="0.4"/>
<path d="M122.068 20.4537L121.536 21.0921C121.466 20.9153 121.292 20.4635 121.17 20.3457L121.641 19.7859C121.719 19.8645 121.893 20.0412 121.937 20.1395L122.068 20.4537Z" fill="#0A4570" fill-opacity="0.4"/>
<path d="M117.428 55.5644L117.184 55.3778L124.396 43.7987L124.623 33.9775L123.507 25.3348L121.501 20.4341L118.187 15.6217L116.879 26.2089L116.591 26.1598L117.995 14.8164C118.004 14.836 121.763 20.2573 121.763 20.2769L123.786 25.2366C123.795 25.2563 124.902 33.9382 124.911 33.9578C124.911 33.9677 124.684 43.887 124.684 43.9067C124.667 43.9263 117.437 55.535 117.42 55.5644H117.428Z" fill="#0086FF"/>
<path d="M111.934 10.0826V11.0647L111.28 10.554L111.202 10.6031V9.83704H111.62L111.934 10.0826Z" fill="#0A4570" fill-opacity="0.4"/>
<path d="M118.362 15.1012L118.318 15.1699L117.952 15.7592L117.69 15.553C117.716 15.3565 117.777 14.8557 117.803 14.6592C117.969 14.7869 118.205 14.9735 118.37 15.1012H118.362Z" fill="#0A4570" fill-opacity="0.4"/>
<path d="M117.899 15.4155L111.289 10.2692L105.472 13.8834L105.333 13.5986L111.306 9.896L118.065 15.1601L117.899 15.4155Z" fill="#0086FF"/>
<path d="M85.24 13.7558L83.2342 12.1058L91.3009 7.62735L99.7601 6.47827C99.8037 6.47827 111.298 9.9255 111.341 9.9255L111.263 10.2398L99.7339 6.81219L91.3881 7.94163L83.7836 12.1549L85.4144 13.5004L85.24 13.7558Z" fill="#0086FF"/>
<path d="M85.5976 64.7374C89.6615 63.441 93.9608 61.9973 97.1788 58.8152C94.0916 62.2232 89.8359 63.9517 85.7982 65.5133L85.5976 64.7374Z" fill="#0A4570"/>
<mask id="mask0_6_406" style="mask-type:luminance" maskUnits="userSpaceOnUse" x="65" y="38" width="66" height="36">
<path d="M65.6095 38.5934H130.911V73.8416H65.6095V38.5934Z" fill="white"/>
</mask>
<g mask="url(#mask0_6_406)">
<path d="M130.693 43.4254C127.44 48.4931 123.795 53.0207 120.062 56.7724C113.007 63.8633 105.559 68.5873 98.5043 71.2292C97.7979 71.4943 97.1003 71.7399 96.4026 71.9559C73.8855 79.1843 56.3742 65.0222 70.9815 39.2318C60.0456 62.0071 73.4931 68.656 90.7602 66.1025C93.4288 65.6998 96.1933 65.0811 98.9752 64.2758C111.638 60.5732 124.623 52.8145 130.693 43.4254Z" fill="#2FC0F2"/>
</g>
<path d="M93.9084 23.3805C96.1671 23.4197 96.1671 27.1518 93.9084 27.1911C91.6497 27.1518 91.6497 23.4197 93.9084 23.3805Z" fill="#FE2860" fill-opacity="0.2"/>
<path d="M93.9084 26.7098C92.2253 26.7 92.2253 23.8715 93.9084 23.8617C95.5828 23.8715 95.5828 26.7 93.9084 26.7098Z" fill="#FE2860" fill-opacity="0.4"/>
<path d="M93.9084 26.2286C92.8009 26.2482 92.8009 24.3233 93.9084 24.3429C95.0072 24.3233 95.0072 26.2482 93.9084 26.2286Z" fill="#FE2860" fill-opacity="0.6"/>
<path d="M93.9085 25.7474C93.3678 25.7572 93.3678 24.8143 93.9085 24.8242C94.4492 24.8143 94.4492 25.7572 93.9085 25.7474Z" fill="white"/>
<path d="M102.158 25.5411C103.266 25.5313 103.266 27.4464 102.158 27.4267C101.06 27.4464 101.06 25.5313 102.158 25.5411Z" fill="#FE2860" fill-opacity="0.2"/>
<path d="M102.158 27.1911C101.339 27.2009 101.339 25.767 102.158 25.7866C102.987 25.767 102.987 27.2009 102.158 27.1911Z" fill="#FE2860" fill-opacity="0.4"/>
<path d="M102.158 26.9554C101.618 26.9652 101.618 26.0125 102.158 26.0224C102.708 26.0125 102.708 26.9652 102.158 26.9554Z" fill="#FE2860" fill-opacity="0.6"/>
<path d="M102.158 26.7194C101.897 26.7194 101.897 26.258 102.158 26.258C102.429 26.258 102.429 26.7194 102.158 26.7194Z" fill="white"/>
<path d="M103.667 31.1981C104.905 31.1981 104.905 33.29 103.667 33.2998C102.429 33.29 102.429 31.1981 103.667 31.1981Z" fill="#FE2860" fill-opacity="0.2"/>
<path d="M103.667 33.0346C102.743 33.0444 102.743 31.4436 103.667 31.4632C104.583 31.4436 104.583 33.0444 103.667 33.0346Z" fill="#FE2860" fill-opacity="0.4"/>
<path d="M103.667 32.7694C103.057 32.7793 103.057 31.7186 103.667 31.7284C104.269 31.7186 104.269 32.7793 103.667 32.7694Z" fill="#FE2860" fill-opacity="0.6"/>
<path d="M103.667 32.5052C103.362 32.5052 103.362 31.9838 103.667 31.9936C103.964 31.9838 103.964 32.5052 103.667 32.5052Z" fill="white"/>
<path d="M95.6265 31.3159C96.7166 31.2963 96.7166 33.1918 95.6265 33.1721C94.5364 33.1918 94.5364 31.2963 95.6265 31.3159Z" fill="#FE2860" fill-opacity="0.2"/>
<path d="M95.6265 32.9462C94.8067 32.956 94.8067 31.5417 95.6265 31.5516C96.4375 31.5417 96.4375 32.956 95.6265 32.9462Z" fill="#FE2860" fill-opacity="0.4"/>
<path d="M95.6265 32.7105C95.0858 32.7105 95.0858 31.7775 95.6265 31.7873C96.1672 31.7775 96.1672 32.7105 95.6265 32.7105Z" fill="#FE2860" fill-opacity="0.6"/>
<path d="M95.6264 32.4746C95.3561 32.4746 95.3561 32.0132 95.6264 32.023C95.888 32.0132 95.888 32.4746 95.6264 32.4746Z" fill="white"/>
<path d="M113.234 28.8901C114.594 28.9 114.594 31.1883 113.234 31.1981C111.873 31.1883 111.873 28.9 113.234 28.8901Z" fill="#FE2860" fill-opacity="0.2"/>
<path d="M113.234 30.9034C112.222 30.9231 112.222 29.1651 113.234 29.1847C114.237 29.1651 114.237 30.9231 113.234 30.9034Z" fill="#FE2860" fill-opacity="0.4"/>
<path d="M113.234 30.6187C112.562 30.6285 112.562 29.4696 113.234 29.4794C113.897 29.4696 113.897 30.6285 113.234 30.6187Z" fill="#FE2860" fill-opacity="0.6"/>
<path d="M113.234 30.325C112.902 30.3348 112.902 29.7642 113.234 29.7642C113.556 29.7642 113.556 30.3348 113.234 30.325Z" fill="white"/>
<path d="M116.731 24.1269C119.173 24.176 119.173 28.2027 116.731 28.242C114.289 28.2027 114.289 24.176 116.731 24.1269Z" fill="#FE2860" fill-opacity="0.2"/>
<path d="M116.731 27.7214C114.908 27.6919 114.908 24.6866 116.731 24.6473C118.553 24.6866 118.553 27.6919 116.731 27.7214Z" fill="#FE2860" fill-opacity="0.4"/>
<path d="M116.731 27.2008C115.536 27.2008 115.536 25.1777 116.731 25.1678C117.934 25.1777 117.934 27.2008 116.731 27.2008Z" fill="#FE2860" fill-opacity="0.6"/>
<path d="M116.731 26.6803C116.155 26.6901 116.147 25.6785 116.731 25.6884C117.315 25.6785 117.315 26.6901 116.731 26.6803Z" fill="white"/>
<path d="M124.867 32.9954C126.071 33.0052 126.071 35.0284 124.867 35.0284C123.664 35.0284 123.664 33.0052 124.867 32.9954Z" fill="#FE2860" fill-opacity="0.2"/>
<path d="M124.867 34.773C123.978 34.7926 123.978 33.2409 124.867 33.2507C125.757 33.2409 125.757 34.7926 124.867 34.773Z" fill="#FE2860" fill-opacity="0.4"/>
<path d="M124.867 34.5176C124.283 34.5275 124.283 33.4962 124.867 33.5061C125.46 33.4962 125.46 34.5275 124.867 34.5176Z" fill="#FE2860" fill-opacity="0.6"/>
<path d="M124.867 34.2632C124.58 34.2632 124.58 33.7614 124.867 33.7712C125.155 33.7614 125.155 34.2632 124.867 34.2632Z" fill="white"/>
<path d="M109.205 34.6453C111.036 34.6846 111.027 37.6899 109.205 37.7291C107.382 37.6899 107.382 34.6846 109.205 34.6453Z" fill="#FE2860" fill-opacity="0.2"/>
<path d="M109.205 37.3363C107.853 37.3265 107.853 35.048 109.205 35.0381C110.565 35.048 110.565 37.3265 109.205 37.3363Z" fill="#FE2860" fill-opacity="0.4"/>
<path d="M109.205 36.9435C108.315 36.9631 108.315 35.4114 109.205 35.4212C110.094 35.4114 110.094 36.9631 109.205 36.9435Z" fill="#FE2860" fill-opacity="0.6"/>
<path d="M109.205 36.5604C108.769 36.5702 108.769 35.8042 109.205 35.814C109.641 35.8042 109.641 36.5702 109.205 36.5604Z" fill="white"/>
<path d="M124.545 42.6595C125.957 42.6595 125.957 45.046 124.545 45.0558C123.123 45.046 123.123 42.6595 124.545 42.6595Z" fill="#FE2860" fill-opacity="0.2"/>
<path d="M124.545 44.7513C123.489 44.7611 123.489 42.9442 124.545 42.954C125.591 42.9442 125.591 44.7611 124.545 44.7513Z" fill="#FE2860" fill-opacity="0.4"/>
<path d="M124.545 44.4468C123.847 44.4566 123.847 43.2486 124.545 43.2585C125.233 43.2486 125.233 44.4566 124.545 44.4468Z" fill="#FE2860" fill-opacity="0.6"/>
<path d="M124.545 44.1423C124.205 44.1522 124.205 43.5629 124.545 43.5629C124.876 43.5629 124.876 44.1522 124.545 44.1423Z" fill="white"/>
<path d="M101.382 17.7039C103.205 17.7431 103.205 20.7484 101.382 20.7877C99.5595 20.7484 99.5595 17.7431 101.382 17.7039Z" fill="#FE2860" fill-opacity="0.2"/>
<path d="M101.382 20.3948C100.022 20.3849 100.022 18.1064 101.382 18.0966C102.734 18.1064 102.734 20.3849 101.382 20.3948Z" fill="#FE2860" fill-opacity="0.4"/>
<path d="M101.382 20.0019C100.493 20.0216 100.493 18.4698 101.382 18.4895C102.272 18.4698 102.272 20.0216 101.382 20.0019Z" fill="#FE2860" fill-opacity="0.6"/>
<path d="M101.382 19.6189C100.946 19.6189 100.946 18.8627 101.382 18.8725C101.818 18.8627 101.818 19.6189 101.382 19.6189Z" fill="white"/>
<path d="M105.237 3.26666C107.059 3.29613 107.059 6.31122 105.237 6.34069C103.414 6.31122 103.414 3.29613 105.237 3.26666Z" fill="#FE2860" fill-opacity="0.2"/>
<path d="M105.237 5.9577C103.876 5.94788 103.885 3.65955 105.237 3.65955C106.597 3.65955 106.597 5.94788 105.237 5.9577Z" fill="#FE2860" fill-opacity="0.4"/>
<path d="M105.237 5.56481C104.347 5.57463 104.347 4.03271 105.237 4.04253C106.126 4.03271 106.126 5.57463 105.237 5.56481Z" fill="#FE2860" fill-opacity="0.6"/>
<path d="M105.237 5.18175C104.801 5.18175 104.801 4.42552 105.237 4.43534C105.673 4.42552 105.673 5.18175 105.237 5.18175Z" fill="white"/>
<path d="M96.9521 17.9886C98.0771 17.9984 98.0771 19.8841 96.9521 19.8939C95.8272 19.8841 95.8272 17.9984 96.9521 17.9886Z" fill="#FE2860" fill-opacity="0.2"/>
<path d="M96.9521 19.6484C96.1236 19.668 96.1236 18.2145 96.9521 18.2341C97.7893 18.2145 97.7893 19.668 96.9521 19.6484Z" fill="#FE2860" fill-opacity="0.4"/>
<path d="M96.952 19.4127C96.4026 19.4225 96.4026 18.46 96.952 18.4699C97.5014 18.46 97.5014 19.4225 96.952 19.4127Z" fill="#FE2860" fill-opacity="0.6"/>
<path d="M96.9521 19.167C96.6817 19.1768 96.6817 18.7056 96.9521 18.7056C97.2224 18.7056 97.2224 19.1768 96.9521 19.167Z" fill="white"/>
<path d="M113.077 15.2485C113.661 15.2387 113.661 16.2405 113.077 16.2307C112.501 16.2405 112.501 15.2387 113.077 15.2485Z" fill="#FE2860" fill-opacity="0.2"/>
<path d="M113.077 16.103C112.649 16.1128 112.649 15.3664 113.077 15.3664C113.513 15.3664 113.513 16.1128 113.077 16.103Z" fill="#FE2860" fill-opacity="0.4"/>
<path d="M113.077 15.986C112.798 15.986 112.798 15.4941 113.077 15.4941C113.365 15.4941 113.365 15.986 113.077 15.986Z" fill="#FE2860" fill-opacity="0.6"/>
<path d="M113.077 15.8578C112.937 15.8578 112.937 15.6217 113.077 15.6217C113.216 15.6217 113.216 15.8578 113.077 15.8578Z" fill="white"/>
<mask id="mask1_6_406" style="mask-type:luminance" maskUnits="userSpaceOnUse" x="127" y="33" width="4" height="9">
<path d="M127.998 33.565H130.911V41.1076H127.998V33.565Z" fill="white"/>
</mask>
<g mask="url(#mask1_6_406)">
<path d="M129.507 35.9613C131.329 35.9908 131.329 38.9961 129.507 39.0354C127.684 38.9961 127.684 35.9908 129.507 35.9613Z" fill="#FE2860" fill-opacity="0.2"/>
</g>
<mask id="mask2_6_406" style="mask-type:luminance" maskUnits="userSpaceOnUse" x="127" y="36" width="4" height="6">
<path d="M127.998 36.0792H130.911V41.1076H127.998V36.0792Z" fill="white"/>
</mask>
<g mask="url(#mask2_6_406)">
<path d="M129.507 38.6425C128.146 38.6327 128.146 36.3542 129.507 36.3443C130.858 36.3542 130.858 38.6327 129.507 38.6425Z" fill="#FE2860" fill-opacity="0.4"/>
</g>
<path d="M129.507 38.2595C128.617 38.2693 128.617 36.7176 129.507 36.7372C130.396 36.7176 130.396 38.2693 129.507 38.2595Z" fill="#FE2860" fill-opacity="0.6"/>
<path d="M129.507 37.8667C129.071 37.8765 129.071 37.1203 129.507 37.1203C129.943 37.1203 129.943 37.8765 129.507 37.8667Z" fill="white"/>
<path d="M124.841 10.4066C126.672 10.4361 126.672 13.4414 124.841 13.4806C123.018 13.4414 123.018 10.4361 124.841 10.4066Z" fill="#FE2860" fill-opacity="0.2"/>
<path d="M124.841 13.0878C123.489 13.078 123.489 10.7995 124.841 10.7897C126.202 10.7995 126.202 13.078 124.841 13.0878Z" fill="#FE2860" fill-opacity="0.4"/>
<path d="M124.841 12.7048C123.952 12.7147 123.952 11.1629 124.841 11.1826C125.739 11.1629 125.739 12.7147 124.841 12.7048Z" fill="#FE2860" fill-opacity="0.6"/>
<path d="M124.841 12.312C124.405 12.3218 124.405 11.5656 124.841 11.5656C125.277 11.5656 125.277 12.3218 124.841 12.312Z" fill="white"/>
<path d="M86.6441 4.80859C87.8737 4.80859 87.8737 6.88086 86.6441 6.88086C85.4232 6.88086 85.4232 4.80859 86.6441 4.80859Z" fill="#FE2860" fill-opacity="0.2"/>
<path d="M86.6441 6.61569C85.7371 6.63534 85.7371 5.05413 86.6441 5.06395C87.5598 5.05413 87.5598 6.63534 86.6441 6.61569Z" fill="#FE2860" fill-opacity="0.4"/>
<path d="M86.644 6.36027C86.0423 6.37009 86.0423 5.31923 86.644 5.32905C87.2458 5.31923 87.2458 6.37009 86.644 6.36027Z" fill="#FE2860" fill-opacity="0.6"/>
<path d="M86.6441 6.09609C86.3563 6.09609 86.3563 5.58448 86.6441 5.59432C86.9406 5.58448 86.9406 6.09609 86.6441 6.09609Z" fill="white"/>
<path d="M117.655 9.18877C118.545 9.17894 118.545 10.7307 117.655 10.711C116.757 10.7307 116.757 9.17894 117.655 9.18877Z" fill="#FE2860" fill-opacity="0.2"/>
<path d="M117.655 10.5245C116.984 10.5343 116.984 9.37543 117.655 9.38525C118.318 9.37543 118.318 10.5343 117.655 10.5245Z" fill="#FE2860" fill-opacity="0.4"/>
<path d="M117.655 10.328C117.21 10.3379 117.21 9.57181 117.655 9.58164C118.091 9.57181 118.091 10.3379 117.655 10.328Z" fill="#FE2860" fill-opacity="0.6"/>
<path d="M117.655 10.1413C117.437 10.1413 117.437 9.76825 117.655 9.76825C117.864 9.76825 117.864 10.1413 117.655 10.1413Z" fill="white"/>
<path d="M92.1905 28.8999C93.08 28.8803 93.08 30.432 92.1905 30.4222C91.301 30.432 91.301 28.8803 92.1905 28.8999Z" fill="#FE2860" fill-opacity="0.2"/>
<path d="M92.1905 30.2258C91.519 30.2356 91.519 29.0767 92.1905 29.0865C92.8533 29.0767 92.8533 30.2356 92.1905 30.2258Z" fill="#FE2860" fill-opacity="0.4"/>
<path d="M92.1904 30.0392C91.7457 30.0392 91.7457 29.2731 92.1904 29.2829C92.6265 29.2731 92.6265 30.0392 92.1904 30.0392Z" fill="#FE2860" fill-opacity="0.6"/>
<path d="M92.1905 29.8426C91.9725 29.8426 91.9725 29.4696 92.1905 29.4794C92.3998 29.4696 92.3998 29.8426 92.1905 29.8426Z" fill="white"/>
<path d="M99.2805 44.4174C99.9433 44.4075 99.9433 45.5664 99.2805 45.5468C98.609 45.5664 98.609 44.4075 99.2805 44.4174Z" fill="#FE2860" fill-opacity="0.2"/>
<path d="M99.2805 45.4093C98.7834 45.4191 98.7834 44.545 99.2805 44.5549C99.7776 44.5549 99.7776 45.4191 99.2805 45.4093Z" fill="#FE2860" fill-opacity="0.4"/>
<path d="M99.2805 45.263C98.9491 45.2728 98.9491 44.6924 99.2805 44.7022C99.6031 44.6924 99.6031 45.2728 99.2805 45.263Z" fill="#FE2860" fill-opacity="0.6"/>
<path d="M99.2806 45.1146C99.1149 45.1244 99.1149 44.8397 99.2806 44.8397C99.4376 44.8397 99.4376 45.1244 99.2806 45.1146Z" fill="white"/>
<path d="M98.6788 1.04706C99.5683 1.02742 99.5683 2.57916 98.6788 2.55952C97.7806 2.57916 97.7806 1.02742 98.6788 1.04706Z" fill="#FE2860" fill-opacity="0.2"/>
<path d="M98.6787 2.3729C98.0072 2.38272 98.0072 1.22382 98.6787 1.23364C99.3415 1.22382 99.3415 2.38272 98.6787 2.3729Z" fill="#FE2860" fill-opacity="0.4"/>
<path d="M98.6788 2.1765C98.234 2.18632 98.234 1.42027 98.6788 1.43009C99.1148 1.42027 99.1148 2.18632 98.6788 2.1765Z" fill="#FE2860" fill-opacity="0.6"/>
<path d="M98.6787 1.98982C98.4607 1.98982 98.4607 1.61676 98.6787 1.61676C98.888 1.61676 98.888 1.98982 98.6787 1.98982Z" fill="white"/>
<path d="M105.403 12.5673C106.789 12.5771 106.789 14.9048 105.403 14.9146C104.025 14.9048 104.025 12.5771 105.403 12.5673Z" fill="#FE2860" fill-opacity="0.2"/>
<path d="M105.403 14.6199C104.382 14.6297 104.382 12.852 105.403 12.8717C106.432 12.852 106.432 14.6297 105.403 14.6199Z" fill="#FE2860" fill-opacity="0.4"/>
<path d="M105.402 14.3253C104.722 14.3351 104.722 13.1467 105.402 13.1664C106.083 13.1566 106.083 14.3351 105.402 14.3253Z" fill="#FE2860" fill-opacity="0.6"/>
<path d="M105.403 14.0218C105.071 14.0316 105.071 13.4512 105.403 13.461C105.734 13.4512 105.734 14.0316 105.403 14.0218Z" fill="white"/>
<path d="M118.03 13.6869C119.861 13.7164 119.861 16.7315 118.03 16.7609C116.207 16.7217 116.207 13.7164 118.03 13.6869Z" fill="#FE2860" fill-opacity="0.2"/>
<path d="M118.03 16.3681C116.678 16.3681 116.678 14.0798 118.03 14.07C119.391 14.0798 119.391 16.3681 118.03 16.3681Z" fill="#FE2860" fill-opacity="0.4"/>
<path d="M118.03 15.985C117.141 15.9948 117.141 14.4431 118.03 14.4627C118.92 14.4431 118.92 15.9948 118.03 15.985Z" fill="#FE2860" fill-opacity="0.6"/>
<path d="M118.03 15.5922C117.594 15.602 117.594 14.8458 118.03 14.8556C118.466 14.8458 118.466 15.602 118.03 15.5922Z" fill="white"/>
<path d="M121.763 19.3734C122.896 19.3734 122.896 21.2787 121.763 21.2885C120.629 21.2787 120.629 19.3734 121.763 19.3734Z" fill="#FE2860" fill-opacity="0.2"/>
<path d="M121.763 21.0429C120.926 21.0626 120.926 19.5992 121.763 19.6091C122.6 19.5992 122.6 21.0626 121.763 21.0429Z" fill="#FE2860" fill-opacity="0.4"/>
<path d="M121.763 20.8073C121.213 20.8171 121.213 19.8448 121.763 19.8546C122.321 19.8448 122.321 20.8171 121.763 20.8073Z" fill="#FE2860" fill-opacity="0.6"/>
<path d="M121.763 20.5616C121.492 20.5616 121.492 20.0904 121.763 20.1002C122.033 20.0904 122.033 20.5616 121.763 20.5616Z" fill="white"/>
<path d="M89.3213 17.2029C90.6033 17.2128 90.6033 19.3636 89.3213 19.3734C88.0394 19.3636 88.0394 17.2128 89.3213 17.2029Z" fill="#FE2860" fill-opacity="0.2"/>
<path d="M89.3213 19.0984C88.3708 19.1181 88.3708 17.4583 89.3213 17.4779C90.2719 17.4583 90.2719 19.1181 89.3213 19.0984Z" fill="#FE2860" fill-opacity="0.4"/>
<path d="M89.3213 18.8234C88.6934 18.8333 88.6934 17.7431 89.3213 17.7529C89.9492 17.7431 89.9492 18.8333 89.3213 18.8234Z" fill="#FE2860" fill-opacity="0.6"/>
<path d="M89.3213 18.5493C89.016 18.5592 89.016 18.018 89.3213 18.0279C89.6265 18.018 89.6265 18.5592 89.3213 18.5493Z" fill="white"/>
<path d="M91.3359 6.90044C92.208 6.89062 92.208 8.40308 91.3359 8.39326C90.4725 8.40308 90.4725 6.89062 91.3359 6.90044Z" fill="#FE2860" fill-opacity="0.2"/>
<path d="M91.3358 8.20672C90.6905 8.21654 90.6905 7.08711 91.3358 7.09693C91.9899 7.08711 91.9899 8.20672 91.3358 8.20672Z" fill="#FE2860" fill-opacity="0.4"/>
<path d="M91.3359 8.01031C90.9086 8.02013 90.9086 7.27372 91.3359 7.28354C91.7632 7.27372 91.7632 8.02013 91.3359 8.01031Z" fill="#FE2860" fill-opacity="0.6"/>
<path d="M91.3358 7.82359C91.1265 7.8334 91.1265 7.46034 91.3358 7.47016C91.5451 7.46034 91.5451 7.8334 91.3358 7.82359Z" fill="white"/>
<path d="M99.8125 5.11304C101.496 5.11304 101.496 7.96118 99.8125 7.971C98.1206 7.96118 98.1206 5.11304 99.8125 5.11304Z" fill="#FE2860" fill-opacity="0.2"/>
<path d="M99.8125 7.60769C98.5479 7.59787 98.5479 5.4765 99.8125 5.46667C101.068 5.4765 101.068 7.59787 99.8125 7.60769Z" fill="#FE2860" fill-opacity="0.4"/>
<path d="M99.8124 7.24419C98.9839 7.25401 98.9839 5.82012 99.8124 5.82995C100.641 5.82012 100.641 7.25401 99.8124 7.24419Z" fill="#FE2860" fill-opacity="0.6"/>
<path d="M99.8124 6.88082C99.4025 6.89064 99.4025 6.18352 99.8124 6.19334C100.214 6.18352 100.214 6.89064 99.8124 6.88082Z" fill="white"/>
<path d="M83.4174 11.3593C84.2894 11.3397 84.2894 12.8521 83.4174 12.8423C82.5453 12.8521 82.5453 11.3397 83.4174 11.3593Z" fill="#FE2860" fill-opacity="0.2"/>
<path d="M83.4173 12.6557C82.772 12.6655 82.772 11.5361 83.4173 11.5459C84.0626 11.5361 84.0626 12.6655 83.4173 12.6557Z" fill="#FE2860" fill-opacity="0.4"/>
<path d="M83.4174 12.4691C82.99 12.4691 82.99 11.7227 83.4174 11.7325C83.8447 11.7227 83.8447 12.4789 83.4174 12.4691Z" fill="#FE2860" fill-opacity="0.6"/>
<path d="M83.4173 12.2824C83.208 12.2824 83.208 11.9191 83.4173 11.9191C83.6266 11.9191 83.6266 12.2824 83.4173 12.2824Z" fill="white"/>
<path d="M98.1729 37.4935C100.432 37.5426 100.432 41.2648 98.1729 41.3041C95.9142 41.2648 95.9142 37.5426 98.1729 37.4935Z" fill="#FE2860" fill-opacity="0.2"/>
<path d="M98.1729 40.8228C96.4985 40.813 96.4985 37.9845 98.1729 37.9747C99.856 37.9845 99.856 40.813 98.1729 40.8228Z" fill="#FE2860" fill-opacity="0.4"/>
<path d="M98.1729 40.3416C97.0741 40.3612 97.0741 38.4461 98.1729 38.4559C99.2804 38.4461 99.2804 40.3612 98.1729 40.3416Z" fill="#FE2860" fill-opacity="0.6"/>
<path d="M98.1729 39.8604C97.6322 39.8702 97.6322 38.9274 98.1729 38.9372C98.7135 38.9274 98.7135 39.8702 98.1729 39.8604Z" fill="white"/>
<path d="M114.446 40.1353C116.792 40.1746 116.792 44.0343 114.446 44.0736C112.109 44.0343 112.109 40.1746 114.446 40.1353Z" fill="#FE2860" fill-opacity="0.2"/>
<path d="M114.446 43.4942C112.806 43.4844 112.806 40.7247 114.446 40.7148C116.085 40.7247 116.085 43.4844 114.446 43.4942Z" fill="#FE2860" fill-opacity="0.4"/>
<path d="M114.446 42.9147C113.495 42.9246 113.495 41.2746 114.446 41.2942C115.397 41.2746 115.397 42.9246 114.446 42.9147Z" fill="#FE2860" fill-opacity="0.6"/>
<path d="M114.446 42.3351C114.176 42.3351 114.176 41.8737 114.446 41.8737C114.716 41.8737 114.716 42.3351 114.446 42.3351Z" fill="white"/>
<path d="M117.367 54.1599C119.068 54.1698 119.068 57.0474 117.367 57.0572C115.658 57.0474 115.658 54.1698 117.367 54.1599Z" fill="#FE2860" fill-opacity="0.2"/>
<path d="M117.367 56.6251C116.164 56.6251 116.164 54.5921 117.367 54.5921C118.571 54.5921 118.571 56.6251 117.367 56.6251Z" fill="#FE2860" fill-opacity="0.4"/>
<path d="M117.367 56.2028C116.67 56.2126 116.67 55.0046 117.367 55.0144C118.056 55.0046 118.056 56.2126 117.367 56.2028Z" fill="#FE2860" fill-opacity="0.6"/>
<path d="M117.367 55.7803C117.167 55.7803 117.167 55.4367 117.367 55.4367C117.559 55.4367 117.559 55.7803 117.367 55.7803Z" fill="white"/>
<path d="M105.228 38.9372C108.49 38.9961 108.49 44.3879 105.228 44.4468C101.958 44.3879 101.958 38.9961 105.228 38.9372Z" fill="#0086FF" fill-opacity="0.2"/>
<path d="M105.228 43.8576C102.655 43.8085 102.655 39.5755 105.228 39.5264C107.792 39.5755 107.792 43.8085 105.228 43.8576Z" fill="#0086FF" fill-opacity="0.4"/>
<path d="M105.228 43.2683C103.353 43.2389 103.353 40.155 105.228 40.1157C107.094 40.155 107.094 43.2389 105.228 43.2683Z" fill="#0086FF" fill-opacity="0.6"/>
<path d="M105.228 42.6888C104.059 42.679 104.059 40.7148 105.228 40.705C106.388 40.7148 106.388 42.679 105.228 42.6888Z" fill="#0086FF" fill-opacity="0.8"/>
<path d="M105.228 42.0996C104.757 42.0996 104.757 41.2844 105.228 41.2942C105.69 41.2844 105.69 42.0996 105.228 42.0996Z" fill="white"/>
<path d="M95.4085 12.7834C96.8735 12.7932 96.8735 15.2583 95.4085 15.2681C93.9434 15.2583 93.9434 12.7932 95.4085 12.7834Z" fill="#0086FF" fill-opacity="0.2"/>
<path d="M95.4085 15.003C94.2573 14.9932 94.2573 13.0584 95.4085 13.0486C96.5596 13.0584 96.5596 14.9932 95.4085 15.003Z" fill="#0086FF" fill-opacity="0.4"/>
<path d="M95.4085 14.7377C94.58 14.7476 94.58 13.3039 95.4085 13.3137C96.2369 13.3039 96.2369 14.7476 95.4085 14.7377Z" fill="#0086FF" fill-opacity="0.6"/>
<path d="M95.4084 14.4726C94.8852 14.4824 94.8852 13.5691 95.4084 13.5789C95.9317 13.5691 95.9317 14.4824 95.4084 14.4726Z" fill="#0086FF" fill-opacity="0.8"/>
<path d="M95.4084 14.2074C95.1991 14.2074 95.1991 13.8441 95.4084 13.8441C95.6177 13.8441 95.6177 14.2074 95.4084 14.2074Z" fill="white"/>
<path d="M107.687 23.9009C109.911 23.95 109.911 27.6035 107.687 27.6428C105.472 27.6035 105.472 23.9402 107.687 23.9009Z" fill="#0086FF" fill-opacity="0.2"/>
<path d="M107.687 27.25C105.952 27.2402 105.952 24.3135 107.687 24.3036C109.431 24.3135 109.431 27.2402 107.687 27.25Z" fill="#0086FF" fill-opacity="0.4"/>
<path d="M107.687 26.8473C106.423 26.8375 106.423 24.7063 107.687 24.7063C108.952 24.7063 108.952 26.8375 107.687 26.8473Z" fill="#0086FF" fill-opacity="0.6"/>
<path d="M107.687 26.4446C106.902 26.4544 106.902 25.0893 107.687 25.0991C108.481 25.0893 108.481 26.4544 107.687 26.4446Z" fill="#0086FF" fill-opacity="0.8"/>
<path d="M107.687 26.0528C107.373 26.0528 107.373 25.5018 107.687 25.5018C108.01 25.5018 108.01 26.0528 107.687 26.0528Z" fill="white"/>
<path d="M111.568 17.4976C113.059 17.4976 113.059 20.0118 111.568 20.0216C110.077 20.0118 110.077 17.4976 111.568 17.4976Z" fill="#0086FF" fill-opacity="0.2"/>
<path d="M111.568 19.7466C110.399 19.7466 110.399 17.7726 111.568 17.7628C112.737 17.7726 112.737 19.7466 111.568 19.7466Z" fill="#0086FF" fill-opacity="0.4"/>
<path d="M111.568 19.4814C110.722 19.4913 110.722 18.0181 111.568 18.0377C112.414 18.0181 112.414 19.4913 111.568 19.4814Z" fill="#0086FF" fill-opacity="0.6"/>
<path d="M111.568 19.2065C111.036 19.2163 111.036 18.2931 111.568 18.3029C112.1 18.2931 112.1 19.2163 111.568 19.2065Z" fill="#0086FF" fill-opacity="0.8"/>
<path d="M111.568 18.9412C111.35 18.9412 111.35 18.5681 111.568 18.5779C111.786 18.5681 111.786 18.9412 111.568 18.9412Z" fill="white"/>
<path d="M111.568 8.55042C113.539 8.5897 113.539 11.8307 111.568 11.8601C109.597 11.8307 109.597 8.5897 111.568 8.55042Z" fill="#0086FF" fill-opacity="0.2"/>
<path d="M111.568 11.5066C110.033 11.4968 110.024 8.91381 111.568 8.90399C113.103 8.91381 113.103 11.4968 111.568 11.5066Z" fill="#0086FF" fill-opacity="0.4"/>
<path d="M111.568 11.1531C110.443 11.1531 110.443 9.26739 111.568 9.25757C112.693 9.26739 112.693 11.1531 111.568 11.1531Z" fill="#0086FF" fill-opacity="0.6"/>
<path d="M111.568 10.7994C110.87 10.8093 110.87 9.60126 111.568 9.61108C112.266 9.60126 112.266 10.8093 111.568 10.7994Z" fill="#0086FF" fill-opacity="0.8"/>
<path d="M111.568 10.4468C111.289 10.4567 111.289 9.96472 111.568 9.96472C111.847 9.96472 111.847 10.4567 111.568 10.4468Z" fill="white"/>
<path d="M111.978 1.05691C113.068 1.03727 113.068 2.94258 111.978 2.92294C110.888 2.93276 110.888 1.03727 111.978 1.05691Z" fill="#0086FF" fill-opacity="0.2"/>
<path d="M111.978 2.7167C111.115 2.73634 111.115 1.24352 111.978 1.25334C112.833 1.24352 112.833 2.73634 111.978 2.7167Z" fill="#0086FF" fill-opacity="0.4"/>
<path d="M111.978 2.52022C111.35 2.53004 111.35 1.43989 111.978 1.44971C112.606 1.43989 112.606 2.53004 111.978 2.52022Z" fill="#0086FF" fill-opacity="0.6"/>
<path d="M111.978 2.32383C111.585 2.32383 111.585 1.64617 111.978 1.65599C112.37 1.64617 112.37 2.32383 111.978 2.32383Z" fill="#0086FF" fill-opacity="0.8"/>
<path d="M111.978 2.12736C111.821 2.12736 111.821 1.85248 111.978 1.85248C112.135 1.85248 112.135 2.12736 111.978 2.12736Z" fill="white"/>
<path d="M93.9957 34.5569C95.8707 34.5864 95.8707 37.6801 93.9957 37.7095C92.1207 37.6801 92.1207 34.5864 93.9957 34.5569Z" fill="#0086FF" fill-opacity="0.2"/>
<path d="M93.9957 37.3756C92.5306 37.3657 92.5306 34.9006 93.9957 34.8908C95.4608 34.9006 95.4608 37.3657 93.9957 37.3756Z" fill="#0086FF" fill-opacity="0.4"/>
<path d="M93.9957 37.0417C92.9405 37.0515 92.9405 35.215 93.9957 35.2248C95.0596 35.215 95.0596 37.0515 93.9957 37.0417Z" fill="#0086FF" fill-opacity="0.6"/>
<path d="M93.9957 36.6979C93.333 36.7078 93.333 35.5587 93.9957 35.5685C94.6585 35.5587 94.6585 36.7078 93.9957 36.6979Z" fill="#0086FF" fill-opacity="0.8"/>
<path d="M93.9958 36.3639C93.7254 36.3639 93.7254 35.9024 93.9958 35.9024C94.2661 35.9024 94.2661 36.3639 93.9958 36.3639Z" fill="white"/>
<path d="M128.469 24.8831C130.326 24.9125 130.326 27.9767 128.469 28.016C126.611 27.9767 126.611 24.9125 128.469 24.8831Z" fill="#0086FF" fill-opacity="0.2"/>
<path d="M128.469 27.6821C127.013 27.6723 127.013 25.2268 128.469 25.217C129.925 25.2268 129.925 27.6723 128.469 27.6821Z" fill="#0086FF" fill-opacity="0.4"/>
<path d="M128.469 27.3482C127.422 27.358 127.422 25.5313 128.469 25.5509C129.515 25.5313 129.515 27.358 128.469 27.3482Z" fill="#0086FF" fill-opacity="0.6"/>
<path d="M128.469 27.0143C127.806 27.0241 127.806 25.875 128.469 25.8848C129.123 25.875 129.123 27.0241 128.469 27.0143Z" fill="#0086FF" fill-opacity="0.8"/>
<path d="M128.469 26.6703C128.199 26.6801 128.199 26.2187 128.469 26.2187C128.739 26.2187 128.739 26.6801 128.469 26.6703Z" fill="white"/>
<path d="M125.591 17.2913C126.69 17.2815 126.69 19.177 125.591 19.1574C124.501 19.177 124.501 17.2815 125.591 17.2913Z" fill="#0086FF" fill-opacity="0.2"/>
<path d="M125.591 18.9609C124.736 18.9805 124.736 17.4779 125.591 17.4975C126.454 17.4779 126.454 18.9805 125.591 18.9609Z" fill="#0086FF" fill-opacity="0.4"/>
<path d="M125.591 18.7645C124.972 18.7743 124.972 17.6842 125.591 17.694C126.219 17.6842 126.219 18.7743 125.591 18.7645Z" fill="#0086FF" fill-opacity="0.6"/>
<path d="M125.591 18.568C125.199 18.568 125.199 17.8904 125.591 17.8904C125.983 17.8904 125.983 18.568 125.591 18.568Z" fill="#0086FF" fill-opacity="0.8"/>
<path d="M125.591 18.3617C125.434 18.3715 125.434 18.0868 125.591 18.0967C125.757 18.0868 125.757 18.3715 125.591 18.3617Z" fill="white"/>
<path d="M88.3446 12.9111C89.4347 12.8915 89.4347 14.7968 88.3446 14.7771C87.2458 14.7968 87.2458 12.8915 88.3446 12.9111Z" fill="#0086FF" fill-opacity="0.2"/>
<path d="M88.3447 14.5806C87.4813 14.5904 87.4813 13.0976 88.3447 13.1074C89.1993 13.0976 89.1993 14.5904 88.3447 14.5806Z" fill="#0086FF" fill-opacity="0.4"/>
<path d="M88.3446 14.3842C87.7167 14.394 87.7167 13.3039 88.3446 13.3137C88.9725 13.3039 88.9725 14.394 88.3446 14.3842Z" fill="#0086FF" fill-opacity="0.6"/>
<path d="M88.3446 14.178C87.9522 14.1878 87.9522 13.5003 88.3446 13.5101C88.7371 13.5003 88.7371 14.1878 88.3446 14.178Z" fill="#0086FF" fill-opacity="0.8"/>
<path d="M88.3447 13.9814C88.1877 13.9814 88.1877 13.7065 88.3447 13.7065C88.5016 13.7065 88.5016 13.9814 88.3447 13.9814Z" fill="white"/>
<path d="M117.489 4.14075C119.487 4.18003 119.487 7.47995 117.489 7.51923C115.484 7.47995 115.484 4.18003 117.489 4.14075Z" fill="#0086FF" fill-opacity="0.2"/>
<path d="M117.489 7.15587C115.92 7.14605 115.92 4.51397 117.489 4.50415C119.05 4.51397 119.05 7.14605 117.489 7.15587Z" fill="#0086FF" fill-opacity="0.4"/>
<path d="M117.49 6.80226C116.347 6.79244 116.347 4.86749 117.49 4.86749C118.623 4.86749 118.623 6.79244 117.49 6.80226Z" fill="#0086FF" fill-opacity="0.6"/>
<path d="M117.49 6.43889C116.774 6.44871 116.774 5.21125 117.49 5.22107C118.196 5.21125 118.196 6.44871 117.49 6.43889Z" fill="#0086FF" fill-opacity="0.8"/>
<path d="M117.489 6.0764C117.193 6.08624 117.193 5.58447 117.489 5.58447C117.777 5.58447 117.777 6.08624 117.489 6.0764Z" fill="white"/>
<mask id="mask3_6_406" style="mask-type:luminance" maskUnits="userSpaceOnUse" x="92" y="0" width="5" height="6">
<path d="M92.2777 0.300659H96.7428V5.90855H92.2777V0.300659Z" fill="white"/>
</mask>
<g mask="url(#mask3_6_406)">
<path d="M93.8998 0.300659C95.9056 0.339944 95.9056 3.63986 93.8998 3.67914C91.894 3.63986 91.894 0.339944 93.8998 0.300659Z" fill="#0086FF" fill-opacity="0.2"/>
</g>
<mask id="mask4_6_406" style="mask-type:luminance" maskUnits="userSpaceOnUse" x="92" y="0" width="5" height="4">
<path d="M92.2777 0.300659H96.7428V3.39433H92.2777V0.300659Z" fill="white"/>
</mask>
<g mask="url(#mask4_6_406)">
<path d="M93.8997 3.31577C92.33 3.30595 92.33 0.664056 93.8997 0.654236C95.4695 0.664056 95.4695 3.30595 93.8997 3.31577Z" fill="#0086FF" fill-opacity="0.4"/>
</g>
<path d="M93.8997 2.95241C92.7573 2.94259 92.7573 1.02746 93.8997 1.01764C95.0421 1.02746 95.0421 2.94259 93.8997 2.95241Z" fill="#0086FF" fill-opacity="0.6"/>
<path d="M93.8997 2.58898C93.1933 2.60862 93.1933 1.37116 93.8997 1.38098C94.6061 1.37116 94.6061 2.60862 93.8997 2.58898Z" fill="#0086FF" fill-opacity="0.8"/>
<path d="M93.8997 2.23634C93.612 2.23634 93.612 1.73457 93.8997 1.74441C94.1875 1.73457 94.1875 2.23634 93.8997 2.23634Z" fill="white"/>
<path d="M119.984 31.2865C120.803 31.2766 120.803 32.7007 119.984 32.6909C119.164 32.7007 119.164 31.2766 119.984 31.2865Z" fill="#0086FF" fill-opacity="0.2"/>
<path d="M119.984 32.5338C119.338 32.5436 119.338 31.424 119.984 31.4338C120.629 31.424 120.629 32.5436 119.984 32.5338Z" fill="#0086FF" fill-opacity="0.4"/>
<path d="M119.984 32.3865C119.513 32.3963 119.513 31.5811 119.984 31.5811C120.454 31.5811 120.454 32.3963 119.984 32.3865Z" fill="#0086FF" fill-opacity="0.6"/>
<path d="M119.984 32.24C119.687 32.24 119.687 31.7284 119.984 31.7383C120.28 31.7284 120.28 32.24 119.984 32.24Z" fill="#0086FF" fill-opacity="0.8"/>
<path d="M119.984 32.0922C119.862 32.0922 119.862 31.8856 119.984 31.8856C120.097 31.8856 120.097 32.0922 119.984 32.0922Z" fill="white"/>
<path d="M109.545 44.6727C110.923 44.6826 110.923 47.0003 109.545 47.0003C108.167 47.0003 108.167 44.6826 109.545 44.6727Z" fill="#0086FF" fill-opacity="0.2"/>
<path d="M109.545 46.7548C108.472 46.7745 108.472 44.9084 109.545 44.9183C110.618 44.9084 110.618 46.7745 109.545 46.7548Z" fill="#0086FF" fill-opacity="0.4"/>
<path d="M109.545 46.5093C108.76 46.5191 108.76 45.154 109.545 45.1736C110.321 45.154 110.321 46.5191 109.545 46.5093Z" fill="#0086FF" fill-opacity="0.6"/>
<path d="M109.545 46.254C109.056 46.2638 109.056 45.4093 109.545 45.4192C110.033 45.4093 110.033 46.2638 109.545 46.254Z" fill="#0086FF" fill-opacity="0.8"/>
<path d="M109.545 46.0082C109.344 46.0082 109.344 45.6646 109.545 45.6646C109.745 45.6646 109.745 46.0082 109.545 46.0082Z" fill="white"/>
<path d="M99.2805 22.7322C100.65 22.7421 100.65 25.0599 99.2805 25.0697C97.9027 25.0599 97.9027 22.7421 99.2805 22.7322Z" fill="#0086FF" fill-opacity="0.2"/>
<path d="M99.2805 24.8241C98.2078 24.834 98.2078 22.9679 99.2805 22.9876C100.353 22.9679 100.353 24.834 99.2805 24.8241Z" fill="#0086FF" fill-opacity="0.4"/>
<path d="M99.2805 24.5688C98.4956 24.5786 98.4956 23.2233 99.2805 23.2331C100.057 23.2233 100.057 24.5786 99.2805 24.5688Z" fill="#0086FF" fill-opacity="0.6"/>
<path d="M99.2806 24.3232C98.7835 24.333 98.7922 23.4786 99.2806 23.4884C99.7689 23.4786 99.7689 24.333 99.2806 24.3232Z" fill="#0086FF" fill-opacity="0.8"/>
<path d="M99.2805 24.0678C99.0799 24.0776 99.0799 23.734 99.2805 23.734C99.4724 23.734 99.4724 24.0776 99.2805 24.0678Z" fill="white"/>
<path d="M106.091 16.9181C106.745 16.9082 106.745 18.0475 106.091 18.0377C105.437 18.0475 105.437 16.9082 106.091 16.9181Z" fill="#0086FF" fill-opacity="0.2"/>
<path d="M106.091 17.91C105.577 17.9199 105.577 17.0359 106.091 17.0359C106.606 17.0359 106.606 17.9199 106.091 17.91Z" fill="#0086FF" fill-opacity="0.4"/>
<path d="M106.091 17.7922C105.716 17.802 105.716 17.1538 106.091 17.1538C106.466 17.1538 106.466 17.802 106.091 17.7922Z" fill="#0086FF" fill-opacity="0.6"/>
<path d="M106.091 17.6742C105.856 17.684 105.856 17.2717 106.091 17.2815C106.327 17.2717 106.327 17.684 106.091 17.6742Z" fill="#0086FF" fill-opacity="0.8"/>
<path d="M106.091 17.5569C105.995 17.5569 105.995 17.3993 106.091 17.3993C106.187 17.3993 106.187 17.5569 106.091 17.5569Z" fill="white"/>
<path d="M123.76 24.9322C124.658 24.9224 124.658 26.4938 123.76 26.4741C122.853 26.4938 122.853 24.9224 123.76 24.9322Z" fill="#0086FF" fill-opacity="0.2"/>
<path d="M123.76 26.3169C123.045 26.3267 123.045 25.0893 123.76 25.0991C124.466 25.0893 124.466 26.3267 123.76 26.3169Z" fill="#0086FF" fill-opacity="0.4"/>
<path d="M123.76 26.15C123.245 26.1599 123.245 25.2563 123.76 25.2661C124.274 25.2563 124.274 26.1599 123.76 26.15Z" fill="#0086FF" fill-opacity="0.6"/>
<path d="M123.76 25.984C123.437 25.9939 123.437 25.4232 123.76 25.4331C124.082 25.4232 124.082 25.9939 123.76 25.984Z" fill="#0086FF" fill-opacity="0.8"/>
<path d="M123.76 25.8165C123.629 25.8263 123.629 25.5902 123.76 25.5902C123.89 25.5902 123.89 25.8263 123.76 25.8165Z" fill="white"/>
<path d="M108.969 51.0957C111.83 51.1547 111.83 55.8688 108.969 55.9179C106.109 55.8688 106.109 51.1547 108.969 51.0957Z" fill="#FE2860" fill-opacity="0.2"/>
<path d="M108.969 55.2207C106.946 55.1814 106.946 51.8324 108.969 51.7931C111.001 51.8324 111.001 55.1814 108.969 55.2207Z" fill="#FE2860" fill-opacity="0.4"/>
<path d="M108.969 54.5234C107.774 54.5136 107.774 52.5002 108.969 52.4904C110.164 52.5002 110.164 54.5136 108.969 54.5234Z" fill="#FE2860" fill-opacity="0.6"/>
<path d="M108.969 53.8163C108.603 53.8261 108.603 53.1877 108.969 53.1975C109.335 53.1877 109.335 53.8261 108.969 53.8163Z" fill="white"/>
<path d="M103.998 48.0119C105.368 48.0119 105.368 50.3199 103.998 50.3297C102.629 50.3199 102.629 48.0119 103.998 48.0119Z" fill="#FE2860" fill-opacity="0.2"/>
<path d="M103.998 49.9957C103.03 50.0056 103.03 48.3261 103.998 48.3458C104.958 48.3261 104.958 50.0056 103.998 49.9957Z" fill="#FE2860" fill-opacity="0.4"/>
<path d="M103.998 49.6521C103.423 49.6619 103.423 48.67 103.998 48.6798C104.565 48.67 104.565 49.6619 103.998 49.6521Z" fill="#FE2860" fill-opacity="0.6"/>
<path d="M103.998 49.318C103.815 49.318 103.824 49.0137 103.998 49.0137C104.173 49.0137 104.173 49.318 103.998 49.318Z" fill="white"/>
<path d="M27.985 15.7552H1.25579C0.889522 15.7552 0 15.9713 0 17.6409V21.6774C0 23.2979 0.889522 23.5042 1.25579 23.5042H27.985C28.3513 23.5042 29.2844 23.347 29.2844 21.7265V17.5918C29.2844 15.9124 28.3513 15.7552 27.985 15.7552ZM27.7496 33.2959L3.76738 33.345C2.42438 33.453 1.25579 34.2878 0.558131 35.5449C0.374995 35.9672 0.191859 36.4386 0.0959293 36.91L0 57.1122C0 58.7327 0.933125 58.9389 1.30812 58.9389H5.58131C5.9563 58.9389 6.88071 58.7327 6.88071 57.1122C6.88071 57.1122 6.92431 41.0448 6.97663 41.0448H27.7496C28.1246 41.0448 29.049 40.8876 29.049 39.2573V35.1226C29.049 33.5021 28.1246 33.2959 27.7496 33.2959Z" fill="#97E4FF"/>
<path d="M61.2093 51.1409H46.0961C45.1281 51.1409 44.3345 51.0427 43.6805 50.7775C43.1223 50.5713 42.6601 50.1981 42.3375 49.6285C41.9625 49.049 41.6834 48.2633 41.5439 47.3205C41.3607 46.2794 41.3084 44.9634 41.3084 43.392V17.5918C41.3084 15.9124 40.384 15.7552 40.009 15.7552H35.7358C35.3172 15.7552 34.3841 15.9124 34.3841 17.5918V42.5081C34.3841 45.4348 34.6196 47.949 35.0382 49.9919C35.4568 52.0838 36.1108 53.8123 37.0352 55.1185C37.9683 56.4836 39.1718 57.4756 40.6631 58.055C42.0584 58.6247 43.82 58.9389 45.8694 58.9389H61.2093C61.6279 58.9389 62.5087 58.7327 62.5087 57.1122V52.9775C62.5087 51.357 61.6279 51.1409 61.2093 51.1409Z" fill="#97E4FF"/>
<path d="M164.004 28.2674C164.004 28.3165 164.004 28.3755 164.004 28.4246C164.004 28.4737 164.004 28.5326 164.004 28.5817V28.2674ZM164.885 56.6408L156.757 40.9367C159.033 40.6225 160.795 39.5225 161.963 37.7449C163.263 35.594 163.96 32.5102 164.004 28.4246C163.96 24.339 163.263 21.2551 161.963 19.1043C160.568 16.8552 158.24 15.7552 155.083 15.7552H133.656C133.237 15.7552 132.304 15.9124 132.304 17.5918V21.7265C132.304 23.347 133.237 23.5042 133.656 23.5042H153.87C155.083 23.5042 155.876 23.8675 156.338 24.6532C156.844 25.4389 157.08 26.696 157.08 28.4246C157.08 30.1531 156.844 31.4102 156.338 32.1959C155.876 32.9816 155.083 33.345 153.87 33.345H133.656C133.237 33.345 132.304 33.5021 132.304 35.1226V57.1122C132.304 58.7327 133.237 58.9389 133.656 58.9389H137.885C138.304 58.9389 139.185 58.7327 139.185 57.1122V41.0939H148.996L157.402 57.8979C157.594 58.2122 157.734 58.4675 157.917 58.6247C158.152 58.8407 158.475 58.9389 158.894 58.9389H164.004C164.562 58.9389 164.981 58.5264 165.077 57.8979C165.12 57.3675 165.077 56.9551 164.885 56.6408Z" fill="#97E4FF"/>
<path d="M198.161 49.5204H181.792C180.824 49.5204 180.03 49.3633 179.376 49.1571C178.775 48.8919 178.356 48.5285 177.981 47.9982C177.615 47.4285 177.336 46.6428 177.196 45.6509C177.144 45.3857 177.144 45.0223 177.1 44.7572C177.1 44.7572 177.144 40.9858 177.196 40.9858H197.969C198.344 40.9858 199.269 40.7796 199.269 39.1591V35.0244C199.269 33.3941 198.344 33.2369 197.969 33.2369L173.987 33.2959C172.644 33.3941 171.475 34.1798 170.83 35.4958C170.595 35.9083 170.411 36.3306 170.316 36.802L170.22 43.392V43.6572C170.272 46.1223 170.499 48.2142 170.83 49.9428C171.249 52.0347 171.946 53.7632 172.827 55.0694C173.752 56.4345 174.964 57.3676 176.455 57.947C177.894 58.5756 179.612 58.8407 181.653 58.8407H198.161C198.571 58.8407 199.504 58.6836 199.504 57.0533V51.2981C199.504 49.6776 198.571 49.5204 198.161 49.5204ZM198.205 15.657H171.475C171.109 15.657 170.22 15.8633 170.22 17.5427V21.6185C170.22 23.239 171.109 23.3961 171.475 23.3961L198.205 23.4551C198.571 23.4551 199.504 23.239 199.504 21.6185V17.4838C199.504 15.8633 198.571 15.657 198.205 15.657Z" fill="#97E4FF"/>
<path d="M237.516 15.7552H233.374C232.955 15.7552 232.074 15.9124 232.074 17.5918V49.049C232.074 49.0981 232.074 49.0981 232.074 49.1571H231.847C231.795 49.1571 231.751 49.1571 231.708 48.9999L217.013 19.5757C216.647 18.79 216.316 18.1713 215.993 17.6998C215.67 17.1695 215.348 16.757 215.016 16.4918C214.65 16.1776 214.231 15.9713 213.717 15.8633C213.255 15.8142 212.697 15.7552 212.086 15.7552H208.606C207.255 15.7552 206.234 16.2856 205.58 17.2284C204.935 18.2204 204.604 19.9489 204.604 22.5122V57.1122C204.604 58.7327 205.537 58.9389 205.955 58.9389H210.089C210.508 58.9389 211.397 58.7327 211.397 57.1122V25.655C211.397 25.5961 211.397 25.547 211.397 25.547H211.624C211.624 25.547 211.667 25.547 211.763 25.7041L226.502 55.1185C226.868 55.9631 227.243 56.5819 227.565 57.0533C227.897 57.5836 228.22 57.947 228.586 58.2122C228.961 58.5264 229.379 58.6836 229.842 58.7818C230.26 58.8898 230.775 58.9389 231.429 58.9389H234.821C236.164 58.9389 237.185 58.4184 237.839 57.4265C238.493 56.4836 238.815 54.7551 238.815 52.1918V17.5918C238.815 15.9124 237.882 15.7552 237.516 15.7552Z" fill="#97E4FF"/>
<path d="M272.317 15.7552H255.399C253.349 15.7552 251.588 16.0695 250.149 16.649C248.657 17.2775 247.445 18.2695 246.564 19.5757C245.64 20.8917 244.942 22.6202 244.524 24.7122C244.105 26.755 243.913 29.2594 243.913 32.1468V42.5081C243.913 45.4348 244.105 47.949 244.524 50.041C244.942 52.0838 245.64 53.8123 246.564 55.1774C247.498 56.4836 248.701 57.4756 250.149 58.055C251.588 58.6247 253.349 58.9389 255.399 58.9389H272.317C272.683 58.9389 273.616 58.7327 273.616 57.1122V52.9775C273.616 51.357 272.683 51.1409 272.317 51.1409H255.625C254.657 51.1409 253.82 51.0427 253.21 50.7775C252.608 50.5713 252.189 50.1981 251.814 49.6285C251.448 49.0981 251.213 48.3124 251.029 47.3205C250.89 46.2794 250.794 44.9634 250.794 43.392V31.204C250.794 29.6326 250.89 28.3165 251.029 27.3246C251.213 26.3326 251.448 25.5961 251.814 25.0264C252.189 24.447 252.608 24.0836 253.21 23.8675C253.82 23.6122 254.657 23.5042 255.625 23.5042H272.317C272.683 23.5042 273.616 23.2979 273.616 21.6185V17.5918C273.616 15.9713 272.683 15.7552 272.317 15.7552Z" fill="#97E4FF"/>
<path d="M306.657 49.5204H290.288C289.32 49.5204 288.527 49.3633 287.872 49.1571C287.271 48.8919 286.852 48.5285 286.477 47.9982C286.111 47.4285 285.832 46.6428 285.692 45.6509C285.64 45.3857 285.64 45.0223 285.596 44.7572C285.596 44.7572 285.64 40.9858 285.692 40.9858H306.465C306.84 40.9858 307.765 40.7796 307.765 39.1591V35.0244C307.765 33.3941 306.84 33.2369 306.465 33.2369L282.483 33.2959C281.14 33.3941 279.971 34.1798 279.326 35.4958C279.091 35.9083 278.907 36.3306 278.812 36.802L278.716 43.392V43.6572C278.768 46.1223 278.995 48.2142 279.326 49.9428C279.745 52.0347 280.442 53.7632 281.323 55.0694C282.248 56.4345 283.46 57.3676 284.951 57.947C286.39 58.5756 288.108 58.8407 290.149 58.8407H306.657C307.067 58.8407 308 58.6836 308 57.0533V51.2981C308 49.6776 307.067 49.5204 306.657 49.5204ZM306.701 15.657H279.971C279.605 15.657 278.716 15.8633 278.716 17.5427V21.6185C278.716 23.239 279.605 23.3961 279.971 23.3961L306.701 23.4551C307.067 23.4551 308 23.239 308 21.6185V17.4838C308 15.8633 307.067 15.657 306.701 15.657Z" fill="#97E4FF"/>
</svg>
